<svg width="220" height="220" viewBox="0 0 220 220" fill="none" xmlns="http://www.w3.org/2000/svg">
<rect width="220" height="220" fill="#829DFF"/>
<circle cx="87.7691" cy="99.49" r="50" fill="white"/>
<path d="M67.9821 92.3184C65.0058 92.3184 61.2916 92.9645 58.4314 92.0641C56.2673 91.3828 56.4577 88.6324 56.5382 86.7802C56.606 85.2213 58.4023 84.2255 59.6323 83.6578C62.3964 82.3821 65.1981 81.281 68.1234 80.4225C71.1317 79.5396 74.8998 80.0821 77.8435 80.8181C80.0392 81.367 79.6802 83.3094 79.6802 85.1413C79.6802 86.7388 79.0532 87.6026 77.5892 88.2495C74.1652 89.7624 70.2768 90.1124 66.7105 91.3012" stroke="black" stroke-width="3" stroke-linecap="round"/>
<path d="M107.654 89.521C105.075 89.521 100.171 90.5198 98.2729 88.3625C96.614 86.4774 95.4344 83.9149 95.7157 81.3832C95.8696 79.9985 97.7379 79.0891 98.8098 78.5858C101.24 77.4447 103.802 76.6801 106.496 76.5655C110.011 76.4159 113.631 77.9372 116.95 78.9673C117.936 79.2732 121.665 79.9926 121.076 81.694C120.46 83.4724 118.523 84.6325 117.007 85.5086C113.854 87.3302 109.898 87.0075 106.891 89.0124" stroke="black" stroke-width="3" stroke-linecap="round"/>
<path d="M72.2543 81.3794C72.2543 83.8232 72 86.1613 72 88.5M66.4562 82.909C66.4562 85.3529 66.2019 87.6909 66.2019 90.0296" stroke="black" stroke-width="3" stroke-linecap="round"/>
<path d="M107.4 78.8401C107.4 80.4254 107.245 81.9281 107.145 83.4742C107.054 84.8883 106.637 86.0684 106.637 87.4866" stroke="black" stroke-width="3" stroke-linecap="round"/>
<path d="M112.763 79C112.763 80.5853 112.608 82.088 112.509 83.634C112.417 85.0482 112 86.2283 112 87.6465" stroke="black" stroke-width="3" stroke-linecap="round"/>
<path d="M85.275 97.6589C86.1408 97.7671 85.0408 101.9 84.9076 102.349C84.1217 105.005 81.9787 110.185 79.0586 111.236C77.8217 111.681 73.4033 111.807 72.8139 110.629" stroke="black" stroke-width="3" stroke-linecap="round"/>
<path d="M85.0207 104.525C87.3445 104.525 89.7287 104.353 92.0283 104.723C93.1949 104.91 94.2687 105.034 95.4473 105.034" stroke="black" stroke-width="3" stroke-linecap="round"/>
<path d="M10 100.711H55.0124" stroke="black" stroke-width="3" stroke-linecap="round"/>
<path d="M52.7236 108.848C51.4877 108.943 50.2731 109.602 49.2057 110.162C45.0771 112.33 41.2593 115.101 37.4934 117.834C33.7834 120.526 29.8856 123.079 26.2757 125.887" stroke="black" stroke-width="3" stroke-linecap="round"/>
<path d="M53.2323 124.107C51.7534 128.543 50.2789 132.982 48.7112 137.387C47.875 139.737 46.6011 142.258 46.1116 144.706" stroke="black" stroke-width="3" stroke-linecap="round"/>
<path d="M129.016 97.4046C128.691 97.4046 129.628 97.1888 129.934 97.0796C132.662 96.1056 135.268 94.8087 137.917 93.6465C141.255 92.1816 144.918 90.1841 148.598 89.7753" stroke="black" stroke-width="3" stroke-linecap="round"/>
<path d="M122.912 107.068C131.488 107.068 140.064 107.068 148.64 107.068C149.365 107.068 154.701 107.786 154.701 106.814" stroke="black" stroke-width="3" stroke-linecap="round"/>
<path d="M115.029 118.258C115.516 118.312 115.962 118.845 116.286 119.148C118.883 121.571 121.342 124.157 123.901 126.622C126.559 129.18 129.191 131.724 132.068 134.025" stroke="black" stroke-width="3" stroke-linecap="round"/>
<path d="M44.5858 73.754C44.5858 69.2141 44.5858 64.6742 44.5858 60.1344C44.5858 59.5074 43.9684 55.6881 45.2216 55.9666C45.9595 56.1306 46.6466 56.5616 47.4397 56.7154C49.6928 57.1522 51.9573 57.5369 54.2071 57.9869C55.8755 58.3206 57.844 58.5126 59.3356 59.2584" stroke="black" stroke-width="3" stroke-linecap="round"/>
<path d="M103.076 51.8835C104.762 51.8835 106.544 50.805 108.035 50.174C112.838 48.1423 117.633 46.1599 122.672 44.7912C123.88 44.4631 125.056 44 126.317 44C126.428 44 126.102 44.0194 126.077 44.0283C125.652 44.183 125.379 44.7132 125.201 45.0879C122.894 49.9579 122.991 55.8202 121.641 60.9821C121.362 62.0495 120.878 63.2455 120.878 64.3446" stroke="black" stroke-width="3" stroke-linecap="round"/>
<path d="M58.5541 59.0093C61.179 56.623 65.135 55.023 68.2963 53.5153C70.0784 52.6654 71.7593 51.6615 73.5786 50.8866C74.795 50.3685 76.0919 49.4619 77.3908 49.1923C80.7589 48.4933 84.7235 48.3034 88.1422 48.8061C90.0793 49.091 91.9077 49.6344 93.7608 50.2637C95.0129 50.689 96.3875 50.9043 97.573 51.4971C98.9055 52.1633 101.25 53.4931 102.731 52.5062" stroke="black" stroke-width="3" stroke-linecap="round"/>
<path d="M43.5295 74.9308C43.5295 78.1311 42.4247 80.9 40.7888 83.6266C40.2018 84.6049 39.0446 86.2331 39.0446 87.389C39.0446 88.0119 38.5961 88.4509 38.5961 89.0584C38.5961 89.4663 38.4304 90.1529 38.2598 90.5284C37.6079 91.9624 37.6991 94.4618 37.6991 96.01C37.6991 100.179 37.6991 104.349 37.6991 108.518C37.6991 110.75 37.8341 112.608 38.7207 114.635C39.4709 116.35 41.0041 117.901 42.0719 119.444C42.5318 120.108 42.9745 120.798 43.405 121.474C43.7774 122.06 43.6837 122.78 43.978 123.368" stroke="black" stroke-width="3" stroke-linecap="round"/>
<path d="M43.978 123.144C43.978 126.133 44.5294 128.767 46.2205 131.304C48.5894 134.857 51.3805 136.653 55 138C58.3029 139.229 60.4399 141.732 63.5 143.5C64.395 144.017 66.7458 144.774 67.5 145.5C67.923 145.907 70.4554 146.782 71 147C72.522 147.609 76.5472 147.686 78 148.5C81.2889 150.342 81.8374 148.491 85.5 149C89.2693 149.524 93.8173 147.888 97.573 147.412C100.261 147.072 103.355 146.733 105.422 144.896" stroke="black" stroke-width="3" stroke-linecap="round"/>
<path d="M123 64.5C123 66.4271 125.292 67.1558 126.5 68.5C128.294 70.4958 128.659 73.3152 130.313 75.4292C131.977 77.556 134.358 80.1529 134.798 82.9041C135.353 86.3708 134.942 89.9873 135.022 93.4935C135.046 94.5356 135.44 95.7074 135.645 96.7326C136.02 98.6074 135.919 100.511 135.919 102.414C135.919 105.394 135.398 108.137 134.462 110.947C133.343 114.302 132.367 117.771 130.587 120.852C129.745 122.31 129.303 124.245 128.743 125.835C128.309 127.07 127.587 128.451 126.837 129.535C126.159 130.514 125.575 132.465 124.483 133.011" stroke="black" stroke-width="3" stroke-linecap="round"/>
<path d="M124.483 132.338C124.359 133.451 122.026 135.238 121.243 135.926C119.916 137.094 118.785 138.498 117.406 139.626C116.339 140.499 114.395 141.569 113.719 142.753C112.896 144.193 110.368 144.372 109.059 145.12C108.134 145.649 106.685 146.241 105.646 146.241" stroke="black" stroke-width="3" stroke-linecap="round"/>
<path d="M57.4328 59.6821C56.6364 59.8414 55.5226 61.1438 54.9661 61.7003C54.1278 62.5386 53.2726 63.3634 52.4496 64.2168C51.3494 65.3578 50.0957 67.0336 49.36 68.4277C48.5506 69.9612 47.356 71.3212 46.669 72.9624C46.1562 74.1876 44.875 75.565 44.875 76.9491" stroke="black" stroke-width="3" stroke-linecap="round"/>
<path d="M102.955 52.2819C104.927 52.3857 107.186 53.3951 109.01 54.0759C110.984 54.8128 113.183 55.6125 114.965 56.7669C116.21 57.5738 116.957 58.6597 117.979 59.6821C119.188 60.891 120.377 62.0798 121.567 63.27" stroke="black" stroke-width="3" stroke-linecap="round"/>
<path d="M48.9751 68.8572C48.9751 68.2089 48.8351 67.6061 48.7284 66.9697C48.5508 65.911 48.562 64.8273 48.562 63.7569C48.562 63.4479 48.4741 63.1595 48.4587 62.8676C48.4476 62.6555 48.5647 62.7094 48.6653 62.5836C48.7256 62.5082 49.1756 62.4916 49.2476 62.4775C49.9664 62.3363 50.6886 62.2496 51.4191 62.1992C51.7139 62.1789 52.0265 62.2324 52.3055 62.3254C52.4671 62.3793 52.7125 62.416 52.8477 62.5062" stroke="black" stroke-width="3" stroke-linecap="round"/>
<path d="M111.085 54.4685C112.689 53.6078 114.008 52.296 115.689 51.5669C116.095 51.3908 116.553 51.2434 116.982 51.1321C117.247 51.0634 117.226 51.0411 117.226 51.237C117.226 51.4213 117.188 51.5929 117.151 51.7731C116.983 52.5731 116.899 53.3843 116.836 54.1986C116.732 55.5405 116.686 56.8796 116.686 58.2249C116.686 58.5697 116.686 58.9146 116.686 59.2595" stroke="black" stroke-width="3" stroke-linecap="round"/>
<path d="M53.7624 59.5239C51.5404 59.5239 49.7483 58.2247 47.6558 57.7597C47.3713 57.6965 47.1317 57.6494 46.8253 57.6675C46.6321 57.6788 46.9005 58.1768 46.9284 58.3025C47.0278 58.7497 47.1977 59.663 46.999 60.1101C46.7759 60.6119 46.7276 61.4383 46.7276 61.9882C46.7276 62.5578 46.6299 63.1628 46.6299 63.7741C46.6299 64.6209 46.6299 65.4677 46.6299 66.3145C46.6299 66.8923 46.7872 67.8074 46.5322 68.3174" stroke="white" stroke-width="2" stroke-linecap="round"/>
<path d="M47.3138 59.817C46.224 59.817 49.5093 59.9088 50.5816 59.7139C51.1543 59.6097 51.6697 59.2426 52.2426 59.1385C52.6901 59.0571 53.2097 59.133 53.6647 59.133" stroke="white" stroke-width="2" stroke-linecap="round"/>
<path d="M109 52C109.387 52 110.113 52 110.5 52C110.812 52 110.282 50.9816 110.561 51.1386C110.722 51.2293 110.721 51.2839 110.869 51.136C111.138 50.8672 112.17 50.6856 112.5 50.5C112.813 50.324 112.588 50.2027 112.848 49.9497C113.037 49.7658 113.174 49.6795 113.418 49.5768C113.848 49.3951 114.55 49.1574 115 49C116.02 48.6431 116.64 47.9516 117.715 47.7844C118.191 47.7102 118.995 47.6301 119.351 47.2457C119.584 46.9956 119.952 47.0288 120.261 47.0126C120.532 46.9983 120.842 46.9586 121.1 46.8727" stroke="white" stroke-width="2" stroke-linecap="round"/>
<path d="M121.1 46.8727C121.546 46.8504 122.121 46.5348 122.478 46.277C122.595 46.1923 122.779 46.2194 122.685 46.0542C122.546 45.8111 122.243 46.2332 122.167 46.3184C121.369 47.2157 120.477 48.0562 119.515 48.7738C119.249 48.9722 118.943 49.0963 118.675 49.2867C118.597 49.3421 118.497 49.3881 118.489 49.4939C118.473 49.7126 118.349 49.8942 118.349 50.1129C118.349 50.1929 118.444 50.2653 118.492 50.3253C118.638 50.5089 118.692 50.7053 118.745 50.9314C118.868 51.4494 118.885 51.9768 118.826 52.5036C118.74 53.2684 118.536 53.9761 118.536 54.7518C118.536 55.2042 118.625 55.8023 118.955 56.1504C119.082 56.2847 119.241 56.3431 119.375 56.4768C119.507 56.6094 119.635 56.7373 119.771 56.8731C119.885 56.9874 119.981 56.9981 119.981 57.1761C119.981 57.3267 119.976 57.4378 120.051 57.5724C120.112 57.6822 120.073 57.4736 120.077 57.4196C120.107 56.9219 120.177 56.4199 120.237 55.9251C120.293 55.4676 120.342 54.9886 120.53 54.5653C120.649 54.2982 120.689 53.9198 120.737 53.6329C120.826 53.1029 120.917 52.5805 120.986 52.0477C121.072 51.3826 121.087 50.6751 121.333 50.043C121.479 49.6686 121.566 49.333 121.566 48.9344C121.566 48.6622 121.496 48.2898 121.602 48.0383C121.724 47.7489 121.146 48.3434 121.1 48.4112C120.5 49.2831 119.865 50.1335 119.245 50.9858C119.19 51.0614 119.235 51.31 119.235 51.395C119.235 51.7666 119.235 52.1341 119.282 52.5036C119.393 53.3789 119.699 54.239 119.745 55.1222C119.77 55.5904 119.778 56.0888 119.678 56.5467C119.595 56.9233 119.447 57.2002 119.468 57.5957C119.476 57.7401 120.121 58.1548 120.214 57.9687" stroke="white" stroke-width="2" stroke-linecap="round"/>
<rect x="103" y="92.2978" width="85" height="68" fill="#D9D9D9"/>
<path d="M102.069 155.1C102.069 135.829 102.069 116.558 102.069 97.2878C102.069 93.2746 101.072 90.6807 105.666 90.6807C116.065 90.6807 126.465 90.6807 136.865 90.6807C151.977 90.6807 167.307 87.3772 182.091 87.3772C185.071 87.3772 188.109 87.1987 191.083 87.3772C193.77 87.5385 189.712 97.7708 189.554 99.949C188.233 118.146 189.464 136.832 189.464 155.1C189.464 163.28 189.023 167.196 179.754 162.991C175.023 160.846 169.444 161.707 164.289 161.707C152.84 161.707 141.391 161.707 129.942 161.707C119.949 161.707 109.993 163.359 100.451 163.359" stroke="black" stroke-width="3" stroke-linecap="round"/>
<path d="M102.492 157.621C102.492 158.445 102.77 159.573 102.036 159.947" stroke="black" stroke-width="3" stroke-linecap="round"/>
<path d="M100.213 151.574C93.6795 151.574 87.1464 151.574 80.6132 151.574C78.4516 151.574 76.3635 152.039 74.232 152.039C73.145 152.039 73.5647 152.785 72.6367 152.995C71.1335 153.336 69.053 155.167 67.8508 156.019C65.1462 157.936 63.1863 160.249 61.0138 162.713C59.3882 164.556 56 168.114 56 168.114C56 168.114 57.6908 165.895 58.8361 165.168C62.2318 163.011 66.6784 162.22 70.5856 161.911C77.125 161.394 83.6334 161.343 90.185 161.343C94.1476 161.343 98.1651 160.878 102.036 160.878" stroke="black" stroke-width="3" stroke-linecap="round"/>
<path d="M140.75 144.264C137.968 143.948 135.25 141.292 133.176 139.639C130.266 137.319 126.637 134.303 126.201 130.289C125.809 126.691 127.658 122.251 129.162 119.123C130.494 116.355 133.22 115.721 136.025 115.721C137.918 115.721 139.348 116.613 141.204 116.613C143.394 116.613 144.858 115.492 146.156 113.788C147.429 112.117 149.028 111.856 150.947 111.856C152.237 111.856 154.151 111.748 154.151 113.491C154.151 116.296 155.065 118.143 152.112 119.817C150.32 120.833 149.199 123.364 148.487 125.235C147.724 127.237 149.266 127.386 150.51 128.373C153.285 130.576 154.181 133.888 152.921 137.359C152.381 138.846 150.61 138.856 149.425 139.275C147.689 139.889 145.987 140.698 144.246 141.29" stroke="black" stroke-width="3" stroke-linecap="round"/>
<path d="M135.798 108.585C135.798 103.925 139.736 102.893 143.308 101.813C145.536 101.139 146.167 103.625 145.638 105.381C145.383 106.226 145.185 107.221 144.376 107.693C143.584 108.155 142.729 107.852 141.916 108.222C140.279 108.964 138.103 108.594 136.381 109.18" stroke="black" stroke-width="3" stroke-linecap="round"/>
<path d="M137.973 143.973C138.715 143.973 141.627 144.415 142.102 143.81C142.487 143.319 144.042 142.658 144.643 142.352" stroke="black" stroke-width="3" stroke-linecap="round"/>
<path d="M148.466 92.6159C152.78 92.6159 157.333 93.0569 161.595 92.4011C163.004 92.1844 164.427 91.9314 165.859 91.7564C169.233 91.344 172.536 89.9669 175.947 89.7774C177.298 89.7023 178.579 89.1554 179.916 89.1554C180.938 89.1554 181.959 89.1554 182.981 89.1554C184.22 89.1554 185.887 88.8549 187.097 89.2006C187.904 89.431 191.808 89.0422 190.399 90.3767C189.484 91.2439 188.354 92.0115 187.346 92.7743C186.848 93.1515 186.401 93.5446 185.966 93.9956C185.588 94.3884 185.461 95.0554 184.994 95.3527C184.358 95.7572 183.744 94.6521 183.49 94.2444C182.91 93.3176 182.397 92.7874 181.262 92.6612C179.188 92.4307 177.09 92.4739 175.019 92.2088C174.149 92.0975 171.575 91.5721 172.418 91.813C173.359 92.0818 174.317 92.0052 175.291 92.0052C178.098 92.0052 180.939 91.8764 183.738 92.1183C185.502 92.2707 186.557 92.404 187.957 93.1814C188.533 93.5016 189.504 93.9381 189.065 94.7533C188.392 96.0032 187.775 97.2536 187.142 98.5192" stroke="#D9D9D9" stroke-width="3" stroke-linecap="round"/>
<path d="M187.142 160.809C186.118 160.809 185.302 161.216 184.293 161.216C183.512 161.216 182.732 161.216 181.952 161.216C181.376 161.216 179.57 161.583 180.221 160.606" stroke="#D9D9D9" stroke-width="3" stroke-linecap="round"/>
<path d="M102.868 161.624C107.403 161.624 111.938 161.624 116.472 161.624C117.771 161.624 119.106 161.31 120.374 160.968C121.787 160.586 123.214 159.977 124.547 159.384C125.437 158.989 127.318 159.271 127.499 158.367" stroke="#D9D9D9" stroke-width="3" stroke-linecap="round"/>
<path d="M69.7485 158.298C71.4852 156.735 68.5401 158.451 70.5013 157.19C71.5117 156.541 72.3849 155.905 73.4642 155.415C76.9094 153.849 80.7755 154.011 84.4566 153.583C87.8527 153.188 91.0908 152.571 94.5216 152.667C95.6896 152.699 96.8966 153.074 98.0727 153.074C98.8937 153.074 98.7964 153.679 98.7964 154.295C98.7964 155.458 99.4082 155.782 99.4082 156.942C99.4082 159.082 94.669 156.942 93.7979 156.942C90.8184 156.942 88.0626 157.467 85.1125 157.914C79.6743 158.738 74.0523 159.283 68.5561 159.384C67.6944 159.4 70.796 158.444 70 158.798C69.8585 158.861 68.6528 158.811 69 158.798C70.8207 158.73 69.4891 158.295 71.1459 157.654C75.6858 155.898 79.9772 154.676 84.7959 154.341C86.3719 154.231 87.9665 154.295 89.5457 154.295C90.1972 154.295 90.9555 154.188 91.5813 154.397C94.108 155.239 96.1302 155.687 98.6457 156.525C100.368 157.1 99.0328 156.873 98.1858 157.145C95.5 155.313 93.0715 157.784 90.5 158.298C89.3252 158.533 88.1911 158.298 87 158.298C83.2352 158.298 79.448 159.181 75.7034 159.181C73.7809 159.181 77.2366 157.586 77.6712 157.349C80.3459 155.887 82.5376 155.313 85.5536 155.313C86.3244 155.313 87.2283 155.196 87.9963 155.324C89.2134 155.527 87.6865 156.63 87.3969 156.783C87.2118 156.881 89.4111 156.594 89.704 156.58C93.082 156.41 92.6608 155.697 96 156.298C96.8239 156.446 92.2114 155.92 91 156.525" stroke="#D9D9D9" stroke-width="3" stroke-linecap="round"/>
<path d="M145.364 116.273C146.007 115.629 147.162 115.007 148.044 114.827C148.955 114.641 149.763 114.118 150.63 113.803C151.025 113.659 151.119 114.208 151.49 114.373C151.871 114.542 152.253 114.708 152.677 114.753C153 114.787 153.359 115.038 152.82 115.038C152.234 115.038 152.107 113.994 152.298 113.613" stroke="black" stroke-width="2" stroke-linecap="round"/>
<path d="M151.348 115.513C151.286 116.13 150.689 116.958 150.203 117.323C149.322 117.983 148.675 118.89 148.118 119.829C147.394 121.05 146.496 122.242 145.839 123.492C145.268 124.575 144.626 125.64 144.129 126.758C143.852 127.38 143.749 125.433 143.749 124.753C143.749 124.018 143.671 123.236 143.802 122.51C143.853 122.222 143.939 121.981 143.939 121.687C143.939 121.291 144.269 120.572 143.844 120.336C143.587 120.193 143.343 119.365 143.131 119.412C142.957 119.451 142.906 119.597 142.704 119.597C142.511 119.597 142.317 119.597 142.124 119.597C141.077 119.597 140.204 119.085 139.19 119.027C138.354 118.98 137.533 118.742 136.672 118.742C136.308 118.742 135.944 118.742 135.58 118.742C135.2 118.742 135.264 119.008 134.915 119.027C134.617 119.044 134.149 119.33 133.876 119.449C133.548 119.593 133.211 119.622 132.873 119.697C132.53 119.774 131.401 119.79 131.401 120.262C131.401 121.485 130.334 122.591 130.071 123.777C129.945 124.343 129.879 124.848 129.807 125.433C129.613 127.009 129.121 128.603 129.121 130.193C129.121 130.59 129.204 130.744 129.454 131.048C129.774 131.439 129.878 132.037 130.213 132.373C130.305 132.464 130.833 133.264 131 133.064C131.082 132.966 131.091 132.704 131.116 132.589C131.271 131.882 131.41 131.171 131.559 130.462C132.115 127.815 132.828 125.202 133.374 122.552C133.529 121.801 133.747 121.051 133.775 120.283C133.782 120.105 134.177 119.95 134.308 119.882C135.331 119.352 135.595 119.857 135.823 120.8C135.957 121.355 136.063 121.866 136.387 122.346C136.825 122.993 137.378 122.963 138.102 123.038C139.567 123.19 140.383 124.174 141.184 125.296" stroke="black" stroke-width="5" stroke-linecap="round"/>
<path d="M141.279 125.391C140.291 126.755 139.484 128.349 138.356 129.602C138.23 129.742 138.256 129.771 138.234 129.961C138.177 130.48 137.877 131.035 137.67 131.507C137.34 132.259 137.007 132.964 136.815 133.771C136.68 134.338 135.989 135.394 136.155 135.977C136.228 136.232 136.941 136.767 137.121 136.979C137.483 137.407 137.949 137.721 138.377 138.072C138.972 138.559 139.095 138.927 139.095 139.681C139.095 139.948 139.186 140.25 138.815 140.204C138.375 140.149 137.768 139.294 137.364 139.048C136.835 138.726 136.304 138.36 135.818 137.982C135.587 137.803 136.341 138.098 136.456 138.14C137.294 138.451 138.185 138.654 139.031 138.969C139.351 139.088 139.909 139.411 140.234 139.449C141.089 139.55 141.988 139.577 142.873 139.544C143.039 139.538 143.49 139.235 143.274 139.565C142.985 140.006 142.691 140.221 142.229 140.452C141.408 140.862 141.274 141.629 140.467 140.821C139.607 139.962 138.187 139.294 137 139.016C136.455 138.889 135.811 138.803 135.39 138.404C135.143 138.17 134.746 137.986 134.583 137.692C134.517 137.573 136.716 135.676 136.878 135.534C138.715 133.92 140.831 132.339 143.163 131.523C143.514 131.4 143.464 131.35 143.464 130.974C143.464 130.225 143.88 129.534 144.408 129.006C144.691 128.724 145.654 128.075 145.981 128.336C146.195 128.507 146.218 128.639 146.218 128.906C146.218 129.274 146.656 129.255 146.931 129.338C147.564 129.531 147.906 130.121 148.498 130.425C148.856 130.609 149.014 130.848 149.073 131.233C149.151 131.738 149.483 132.211 149.617 132.705C149.816 133.443 149.923 134.323 149.923 135.08C149.923 135.725 149.253 135.809 148.762 136.125C148.234 136.464 147.566 136.562 146.968 136.695C146.67 136.761 145.888 136.995 145.765 136.578C145.633 136.133 145.649 135.636 145.649 135.175C145.649 134.119 145.944 133.105 146.456 132.183C146.707 131.73 147.064 131.342 147.453 130.995C147.853 130.64 148.29 131.521 148.308 131.85C148.345 132.509 149.305 132.53 149.775 132.631C150.565 132.802 151.176 132.797 151.823 133.201C152.018 133.323 152.106 133.566 152.35 133.655C152.599 133.745 152.831 133.882 152.941 134.13C153.12 134.532 153.057 135.113 153.057 135.555C153.057 136.077 152.706 136.564 152.677 137.074C152.662 137.359 152.517 137.651 152.44 137.929C152.367 138.192 152.309 138.99 152.013 138.594" stroke="black" stroke-width="5" stroke-linecap="round"/>
<path d="M136.552 124.541C135.838 124.705 135.116 125.283 134.485 125.635C133.708 126.068 132.415 126.916 131.46 126.821C130.297 126.704 132.118 120.612 132.362 119.939C132.978 118.237 134.255 117.29 135.316 115.926C135.84 115.252 134.322 117.325 133.711 117.921C133.27 118.353 132.769 118.788 132.142 118.788C131.561 118.788 131.708 119.021 131.694 119.555C131.68 120.072 131.386 120.533 131.254 121.025C131.052 121.776 130.82 122.514 130.615 123.262C130.308 124.377 130.205 125.55 129.84 126.643C129.33 128.174 129.69 129.889 130.487 131.26C131.953 133.782 133.73 136.326 136.105 138.085C136.992 138.742 138.023 139.482 139.109 139.754C141.879 140.446 144.911 138.474 147.205 137.197C148.123 136.686 150.742 135.566 150.742 134.228C150.742 133.157 149.643 132.421 148.768 132.055C147.196 131.398 145.588 130.8 143.96 130.301C141.85 129.654 139.7 129.215 137.731 128.184C135.915 127.234 133.696 125.242 135.231 123.049C136.29 121.536 137.861 120.294 139.336 119.207C139.899 118.793 141.741 117.836 141.069 118.028C140.396 118.22 139.726 118.952 139.18 119.356C137.582 120.541 135.873 121.554 134.18 122.595C133.378 123.088 132.586 123.595 131.779 124.079C131.404 124.304 132.481 122.565 132.561 122.453C133.583 121.009 134.79 119.722 136.083 118.518C136.228 118.383 137.369 117.363 137.262 117.566C136.202 119.581 134.292 121.101 133.186 123.113C132.85 123.723 133.509 122.906 133.683 122.765C136.278 120.662 139.28 118.969 142.298 117.559C143.223 117.127 144.162 116.713 145.103 116.316C145.464 116.164 146.134 115.781 146.566 115.876C147.042 115.98 145.81 117.351 145.757 117.41C144.316 118.997 142.769 120.224 141.872 122.218C141.661 122.686 142.048 122.155 142.134 122.055C143.152 120.868 144.272 119.699 145.373 118.589C146.805 117.145 148.262 116.09 149.975 115.052C150.169 114.935 150.896 114.357 151.161 114.463C151.222 114.487 150.873 114.822 150.863 114.832C150.639 115.056 150.423 115.282 150.231 115.535C148.385 117.969 146.867 120.604 145.373 123.262C143.183 127.159 141.165 131.128 139.059 135.066C138.731 135.679 138.571 136.039 138.605 135.088C138.7 132.416 139.464 129.725 140.004 127.119C140.421 125.104 140.98 123.112 141.282 121.075C141.302 120.939 141.605 119.456 141.225 119.868C140.497 120.658 140.142 121.854 139.599 122.772C138.373 124.846 136.964 126.801 135.693 128.845C135.188 129.655 134.691 130.464 134.123 131.231C133.988 131.413 134.143 129.586 134.18 129.413C134.577 127.551 135.435 125.745 136.211 124.015C136.406 123.582 137.409 121.291 136.9 123.071C136.358 124.967 135.397 126.738 134.691 128.575C134.387 129.366 134.156 130.18 133.867 130.975C133.865 130.981 133.552 131.73 133.512 131.686C133.424 131.588 133.484 131.029 133.484 130.954C133.484 130.247 133.473 129.538 133.491 128.831C133.517 127.802 133.517 126.453 134.002 125.514C134.228 125.077 134.676 124.643 135.217 124.853C135.615 125.008 135.79 125.612 135.913 125.961C136.299 127.061 136.524 128.214 136.865 129.328C137.728 132.152 139.069 135 141.097 137.183C141.702 137.834 142.692 138.859 143.683 138.859C144.308 138.859 144.135 137.578 144.166 137.197C144.365 134.718 144.518 132.24 144.798 129.768C144.893 128.923 144.915 127.766 145.274 126.97C145.385 126.722 145.426 127.73 145.43 127.751C145.743 129.481 146.694 131.152 147.482 132.701C148.115 133.944 148.825 135.143 149.641 136.274C149.95 136.701 149.87 135.136 149.876 135.038C150 133.039 150.305 130.989 151.069 129.129C151.093 129.071 151.715 127.696 151.758 128.163C151.876 129.463 151.252 130.986 150.778 132.154C150.099 133.828 149.01 135.603 147.205 136.217C145.183 136.905 142.455 136.662 140.543 135.762C139.147 135.105 137.993 133.994 137.418 132.545C137.173 131.927 136.978 130.707 137.269 130.059C137.764 128.961 140.205 130.432 140.65 130.769C142.953 132.516 144.226 135.523 145.018 138.227C145.161 138.714 145.69 140.232 145.316 140.748C144.747 141.535 141.531 140.121 140.984 139.924C138.075 138.879 135.223 137.642 132.525 136.132C131.675 135.656 130.828 135.158 130.025 134.605C129.838 134.476 129.573 134.32 129.528 134.072C129.46 133.701 130.301 133.968 130.444 134.001C131.489 134.239 132.375 134.879 133.257 135.464C134.268 136.136 135.335 136.782 136.268 137.559C136.493 137.747 137.179 138.406 136.453 137.921C134.999 136.953 133.613 135.734 132.305 134.583C130.577 133.063 128.737 131.418 127.532 129.427C126.35 127.474 127.289 125.566 128.825 124.164C129.021 123.985 132.099 121.806 132.078 122.396C132.045 123.304 131.446 124.205 131.367 125.152C131.113 128.227 131.217 131.482 131.694 134.527C131.73 134.755 132.566 140.604 133.036 140.5C133.501 140.396 133.371 136.697 133.384 136.473C133.605 132.796 133.822 129.034 134.734 125.45C134.843 125.019 135.142 123.854 135.33 124.257C135.479 124.575 135.401 125.073 135.401 125.407C135.401 126.235 135.385 127.065 135.416 127.893C135.486 129.78 135.811 131.64 136.353 133.447C136.503 133.945 136.73 134.531 136.957 133.767C137.76 131.055 138.453 128.357 139.464 125.706C139.939 124.459 140.427 123.205 140.998 121.998C141.18 121.615 141.404 121.033 141.765 120.762C142.213 120.427 141.883 121.88 141.85 122.439C141.606 126.591 141.666 130.752 141.666 134.91C141.666 136.378 141.666 137.846 141.666 139.313C141.666 139.896 141.991 138.193 142.205 137.652C142.943 135.789 143.9 133.982 144.933 132.268C145.242 131.755 145.518 130.751 146.012 130.421" stroke="black" stroke-width="2" stroke-linecap="round"/>
<path d="M141.282 103.831C140.32 103.831 139.359 105.089 138.796 105.812C138.685 105.955 138.247 106.509 138.356 106.7C138.505 106.961 140.256 106.046 140.515 105.94C141.288 105.624 142.199 105.267 143.043 105.237C143.455 105.222 143.666 105.015 143.811 104.626C143.911 104.354 144.222 103.859 144.222 103.575C144.222 103.257 143.65 103.503 143.583 103.703" stroke="black" stroke-width="2" stroke-linecap="round"/>
<path d="M66.5157 160.408C66.5952 160.344 66.7933 160.384 66.8894 160.384C67.1792 160.384 67.454 160.204 67.7063 160.077C67.9609 159.948 68.3968 159.75 68.5046 159.476C68.5372 159.393 68.3977 159.423 68.3524 159.423C68.1616 159.423 67.9523 159.365 67.7597 159.345C67.5472 159.324 67.3414 159.279 67.127 159.279C67.0187 159.279 66.8671 159.251 66.7613 159.284C66.6138 159.329 66.4547 159.484 66.3475 159.591C66.2296 159.709 66.1064 159.867 66.0111 160.005C65.8786 160.196 65.7488 160.408 65.5893 160.576C65.5072 160.663 65.4448 160.768 65.3143 160.768" stroke="#D9D9D9" stroke-linecap="round"/>
<path d="M64.3773 161.225C64.8404 161.225 65.2996 160.958 65.7455 160.852C65.9709 160.799 66.203 160.738 66.4196 160.66C66.5991 160.596 66.7741 160.515 66.9482 160.437C67.1132 160.364 67.3051 160.345 67.4767 160.288" stroke="#D9D9D9" stroke-linecap="round"/>
<path d="M68.2936 157.549C68.2106 157.557 68.1443 157.628 68.0761 157.669C67.9494 157.745 67.8415 157.841 67.7183 157.921C67.5834 158.009 67.4756 158.152 67.4046 158.294C67.3247 158.453 67.2399 158.607 67.1524 158.762C67.1124 158.833 67.0583 158.894 67.0202 158.966C67.0057 158.994 66.9722 159.077 66.9722 159.062" stroke="#D9D9D9" stroke-linecap="round"/>
<path d="M96.2978 138.167C97.4187 138.26 98.5149 138.55 99.6144 138.77" stroke="#D9D9D9" stroke-linecap="round"/>
<path d="M102.856 158.519C102.856 158.962 102.821 159.392 102.78 159.834C102.729 160.39 102.479 160.937 102.479 161.496C102.479 161.806 102.328 162.342 102.064 162.547C101.655 162.865 101.725 161.871 101.725 161.743C101.725 161.325 101.652 160.831 101.742 160.42C101.795 160.173 102.069 159.99 102.236 159.817C102.307 159.743 102.606 159.218 102.722 159.231C102.912 159.252 102.708 160.342 102.705 160.462C102.689 161.209 102.705 161.966 102.705 162.702C102.705 163.376 102.908 162.39 102.965 162.17C103.147 161.459 103.157 160.758 103.157 160.031C103.157 159.921 103.233 159.503 103.233 159.591C103.233 160.057 103.233 160.523 103.233 160.989C103.233 161.523 103.233 162.056 103.233 162.589" stroke="black" stroke-linecap="round"/>
<path d="M102.856 161.911C105.788 161.911 108.843 162.149 111.746 161.647C112.678 161.486 113.646 161.427 114.59 161.387C115.769 161.337 116.938 161.232 118.12 161.232C121.194 161.232 124.279 160.855 127.354 160.855C127.405 160.855 127.631 160.843 127.441 160.86C126.923 160.905 126.415 160.95 125.892 160.927C125.317 160.901 124.844 160.629 124.267 160.629C123.925 160.629 123.583 160.629 123.241 160.629C122.452 160.629 121.678 160.855 120.913 161.04C120.068 161.244 119.213 161.109 118.35 161.174C116.413 161.319 114.464 161.339 112.521 161.308C110.988 161.283 109.442 161.099 107.91 161.345C106.509 161.571 105.099 161.725 103.723 162.024C103.394 162.095 103.116 162.137 102.78 162.137C102.718 162.137 102.144 162.103 102.328 162.288C102.442 162.402 102.921 162.815 103.082 162.815C103.705 162.815 104.362 162.74 105.004 162.74C105.338 162.74 105.649 162.891 105.984 162.891C106.535 162.891 107.087 162.891 107.638 162.891C108.436 162.891 109.216 162.815 110.017 162.815C110.413 162.815 110.809 162.815 111.206 162.815C111.929 162.815 112.575 162.375 113.316 162.363C114.18 162.35 115.007 162.212 115.875 162.212C117.277 162.212 118.613 162.062 119.992 161.798C120.459 161.708 120.893 161.685 121.365 161.685C121.523 161.685 123.25 161.416 123.116 161.685C122.837 162.241 121.441 162.231 120.963 162.212C120.391 162.19 119.805 162.212 119.217 162.212C118.725 162.212 118.291 162.356 117.814 162.443C117.377 162.522 116.949 162.514 116.499 162.514C115.588 162.514 114.696 162.589 113.785 162.589C112.745 162.589 111.667 162.791 110.624 162.66C110.402 162.633 110.193 162.283 110.285 162.401C110.448 162.611 110.736 162.468 110.959 162.518C111.181 162.567 111.364 162.577 111.6 162.589C111.897 162.605 112.228 162.927 112.521 163.025C113.063 163.206 113.363 163.569 113.953 163.569C114.558 163.569 115.145 163.343 115.745 163.343C116.173 163.343 116.782 163.33 117.215 163.263C117.701 163.189 118.199 163.203 118.668 163.058C118.891 162.99 119.283 162.978 119.514 162.966C119.721 162.955 119.899 162.891 120.117 162.891" stroke="black" stroke-linecap="round"/>
<path d="M177.341 161.488C179.741 161.488 182.141 161.488 184.541 161.488C185.917 161.488 187.265 161.738 188.622 161.777C188.818 161.783 189.754 161.898 189.892 161.745C190.341 161.246 189.562 160.185 189.281 159.825C189.005 159.469 189.073 159.029 188.55 159.029C187.79 159.029 187.91 160.064 187.787 160.556C187.565 161.444 187.273 162.356 186.228 162.356C184.426 162.356 182.671 162.5 180.885 162.5C180.051 162.5 177.589 162.633 178.386 162.388C179.077 162.175 180.087 162.356 180.812 162.356C181.477 162.356 181.88 162.38 182.476 162.645C183.112 162.928 184.132 163.513 184.79 163.513C185.546 163.513 187.388 163.877 187.787 163.079C188.007 162.639 188.044 162.256 188.044 161.777C188.044 161.505 187.627 160.994 187.972 160.917C188.822 160.728 187.188 161.622 186.823 161.914C186.169 162.437 185.9 163.185 185.151 163.625C184.858 163.798 184.428 163.996 184.428 163.481C184.428 162.547 185.422 162.513 186.156 162.283C186.446 162.193 186.686 162.171 186.951 162.002C187.273 161.797 187.066 162.195 187.256 162.195C187.61 162.195 189.805 160.427 189.747 160.363C189.464 160.044 187.853 160.772 187.497 160.877C186.945 161.041 187.031 161.093 187.031 161.705C187.031 162.721 186.557 163.014 186.164 163.802" stroke="black" stroke-linecap="round"/>
<path d="M188.529 87.3851C188.529 90.139 188.248 92.868 188.248 95.6222C188.248 96.7999 188.464 97.9667 188.526 99.1446C188.573 100.022 188.763 100.887 188.763 101.771" stroke="black" stroke-linecap="round"/>
<path d="M189.138 87.2914C189.261 87.3067 189.185 88.5565 189.185 88.6946C189.185 89.5401 189.226 90.3836 189.232 91.2277C189.24 92.316 189.317 93.4706 189.208 94.5548C189.09 95.7404 189.185 96.9695 189.185 98.1631" stroke="black" stroke-linecap="round"/>
<path d="M189.747 87.1976C189.747 90.1093 189.826 93.0309 189.69 95.9398C189.651 96.7678 189.607 97.5919 189.607 98.4208C189.607 98.5618 189.516 99.4783 189.513 99.4752" stroke="black" stroke-linecap="round"/>
<path d="M190.403 87.4788C190.403 90.6896 190.403 93.9005 190.403 97.1113C190.403 97.8071 190.446 98.5055 190.263 99.1836C190.242 99.2603 190.234 99.5777 190.122 99.522" stroke="black" stroke-linecap="round"/>
<path d="M191.106 88.2286C191.106 90.1637 191.059 92.1104 191.059 94.0393" stroke="black" stroke-linecap="round"/>
<path d="M191.715 88.8846C191.715 89.6726 191.715 90.4605 191.715 91.2485C191.715 91.7848 191.715 92.3211 191.715 92.8574C191.715 92.9812 191.754 93.105 191.622 93.149" stroke="black" stroke-linecap="round"/>
<path d="M179.581 93.306C179.581 95.5729 179.581 97.8399 179.581 100.107C179.581 101.417 179.855 103.108 179.285 104.246" stroke="white" stroke-width="3" stroke-linecap="round"/>
<path d="M179.285 111.934V113.117" stroke="white" stroke-width="3" stroke-linecap="round"/>
</svg>
